<svg width="18" height="19" viewBox="0 0 18 19" fill="none" xmlns="http://www.w3.org/2000/svg">
<g id="Group 1171274955">
<g id="Group 731">
<path id="Vector" d="M17.9824 6.53035L17.7315 4.1707C17.3682 1.59808 16.1832 0.550293 13.6488 0.550293H11.6075H10.3273H7.69776H6.41759H4.34163C1.79859 0.550293 0.622213 1.59808 0.250271 4.19625L0.0167265 6.53887C-0.0697716 7.45036 0.181073 8.33629 0.726011 9.0263C1.3834 9.86964 2.39542 10.3467 3.5199 10.3467C4.60978 10.3467 5.6564 9.81001 6.31379 8.94963C6.90197 9.81001 7.90535 10.3467 9.02118 10.3467C10.137 10.3467 11.1144 9.83556 11.7113 8.9837C12.3773 9.82704 13.4066 10.3467 14.4792 10.3467C15.6296 10.3467 16.6676 9.84408 17.3163 8.95815C17.8353 8.27666 18.0689 7.41628 17.9824 6.53035Z" fill="#2D3E50"/>
<path id="Vector_2" d="M8.45869 13.6777C7.36017 13.7885 6.52979 14.7085 6.52979 15.7989V18.133C6.52979 18.363 6.72008 18.5504 6.95363 18.5504H11.0796C11.3131 18.5504 11.5034 18.363 11.5034 18.133V16.097C11.5121 14.3166 10.4481 13.4733 8.45869 13.6777Z" fill="#2D3E50"/>
<path id="Vector_3" d="M17.1262 11.7523V14.2908C17.1262 16.642 15.1887 18.5501 12.8013 18.5501C12.5678 18.5501 12.3775 18.3627 12.3775 18.1327V16.0968C12.3775 15.0064 12.0402 14.1545 11.3828 13.5753C10.8032 13.0556 10.0161 12.8001 9.03867 12.8001C8.82243 12.8001 8.60618 12.8086 8.37264 12.8342C6.83297 12.9875 5.66525 14.2653 5.66525 15.7986V18.1327C5.66525 18.3627 5.47495 18.5501 5.24141 18.5501C2.85406 18.5501 0.916504 16.642 0.916504 14.2908V11.7693C0.916504 11.173 1.51334 10.7726 2.07558 10.9686C2.30912 11.0452 2.54267 11.1049 2.78486 11.139C2.88866 11.156 3.00111 11.173 3.10491 11.173C3.2433 11.1901 3.3817 11.1986 3.5201 11.1986C4.52347 11.1986 5.50955 10.8323 6.28804 10.2019C7.03192 10.8323 8.0007 11.1986 9.02137 11.1986C10.0507 11.1986 11.0022 10.8493 11.7461 10.2189C12.5245 10.8408 13.4933 11.1986 14.4794 11.1986C14.6351 11.1986 14.7908 11.1901 14.9378 11.173C15.0416 11.1645 15.1368 11.156 15.2319 11.139C15.5001 11.1049 15.7423 11.0282 15.9845 10.9515C16.5467 10.7641 17.1262 11.173 17.1262 11.7523Z" fill="#2D3E50"/>
</g>
</g>
</svg>
