<svg width="18" height="19" viewBox="0 0 18 19" fill="none" xmlns="http://www.w3.org/2000/svg">
<g id="Vector (Stroke)">
<path id="Vector (Stroke)_2" fill-rule="evenodd" clip-rule="evenodd" d="M9 1.25891C9.38235 1.25891 9.69231 1.5947 9.69231 2.00891V3.32678C13.8385 3.71372 17.0769 7.54417 17.0769 12.1875V13.2053C17.0769 13.6196 16.767 13.9553 16.3846 13.9553H1.61538C1.23303 13.9553 0.923077 13.6196 0.923077 13.2053V12.1875C0.923077 7.54417 4.16153 3.71372 8.30769 3.32678V2.00891C8.30769 1.5947 8.61765 1.25891 9 1.25891ZM9 4.79463C5.31544 4.79463 2.30769 8.09195 2.30769 12.1875V12.4553H15.6923V12.1875C15.6923 8.09195 12.6846 4.79463 9 4.79463ZM0 16.2589C0 15.8447 0.309957 15.5089 0.692308 15.5089H17.3077C17.69 15.5089 18 15.8447 18 16.2589C18 16.6731 17.69 17.0089 17.3077 17.0089H0.692308C0.309957 17.0089 0 16.6731 0 16.2589Z" fill="#B71319"/>
</g>
</svg>
