<svg width="18" height="19" viewBox="0 0 18 19" fill="none" xmlns="http://www.w3.org/2000/svg">
<g id="Produtos icon">
<path id="Vector" d="M16.3235 12.5463V7.43056C16.8794 7.43056 17.25 7.05161 17.25 6.48319C17.25 5.91477 16.8794 5.53582 16.3235 5.53582V2.40951C16.3235 1.3674 15.4897 0.514771 14.4706 0.514771H4.27941C3.26029 0.514771 2.42647 1.3674 2.42647 2.40951V5.44109C1.87059 5.44109 1.5 5.82003 1.5 6.38845C1.5 6.95688 1.87059 7.33582 2.42647 7.33582V12.4516C1.87059 12.4516 1.5 12.8306 1.5 13.399C1.5 13.9674 1.87059 14.3464 2.42647 14.3464V16.62C2.42647 17.6621 3.26029 18.5148 4.27941 18.5148H14.4706C15.4897 18.5148 16.3235 17.6621 16.3235 16.62V14.4411C16.8794 14.4411 17.25 14.0621 17.25 13.4937C17.25 12.9253 16.7868 12.5463 16.3235 12.5463ZM7.05882 2.40951H11.6912C12.2471 2.40951 12.6176 2.78845 12.6176 3.35688C12.6176 3.9253 12.2471 4.30424 11.6912 4.30424H7.05882C6.59559 4.30424 6.13235 3.9253 6.13235 3.35688C6.13235 2.88319 6.59559 2.40951 7.05882 2.40951Z" fill="#2D3E50"/>
</g>
</svg>
