<svg width="16" height="16" viewBox="0 0 16 16" fill="none" xmlns="http://www.w3.org/2000/svg">
<g id="vuesax/bold/calendar">
<g id="calendar">
<path id="Vector" d="M5.5 3.83337C5.22667 3.83337 5 3.60671 5 3.33337V1.33337C5 1.06004 5.22667 0.833374 5.5 0.833374C5.77333 0.833374 6 1.06004 6 1.33337V3.33337C6 3.60671 5.77333 3.83337 5.5 3.83337Z" fill="#2D3E50"/>
<path id="Vector_2" d="M10.5 3.83337C10.2267 3.83337 10 3.60671 10 3.33337V1.33337C10 1.06004 10.2267 0.833374 10.5 0.833374C10.7733 0.833374 11 1.06004 11 1.33337V3.33337C11 3.60671 10.7733 3.83337 10.5 3.83337Z" fill="#2D3E50"/>
<path id="Vector_3" d="M7.9999 9.39337C8.34657 9.39337 8.5999 9.18671 8.5999 8.86004C8.5999 8.52671 8.34657 8.33337 7.9999 8.33337C7.65324 8.33337 7.3999 8.52671 7.3999 8.86004C7.3999 9.18671 7.65324 9.39337 7.9999 9.39337Z" fill="#2D3E50"/>
<path id="Vector_4" d="M8.00023 11.3334C8.41997 11.3334 8.76023 11.0558 8.76023 10.7134C8.76023 10.371 8.41997 10.0934 8.00023 10.0934C7.5805 10.0934 7.24023 10.371 7.24023 10.7134C7.24023 11.0558 7.5805 11.3334 8.00023 11.3334Z" fill="#2D3E50"/>
<path id="Vector_5" d="M13.0465 3.00004C12.6065 2.67337 11.9732 2.98671 11.9732 3.54004V3.60671C11.9732 4.38671 11.4132 5.10671 10.6332 5.18671C9.73317 5.28004 8.97317 4.57337 8.97317 3.69337V3.00004C8.97317 2.63337 8.67317 2.33337 8.3065 2.33337H7.69317C7.3265 2.33337 7.0265 2.63337 7.0265 3.00004V3.69337C7.0265 4.22004 6.75317 4.68671 6.33984 4.94671C6.27984 4.98671 6.21317 5.02004 6.1465 5.05337C6.0865 5.08671 6.01984 5.11337 5.9465 5.13337C5.8665 5.16004 5.77984 5.18004 5.6865 5.18671C5.57984 5.20004 5.47317 5.20004 5.3665 5.18671C5.27317 5.18004 5.1865 5.16004 5.1065 5.13337C5.03984 5.11337 4.97317 5.08671 4.9065 5.05337C4.83984 5.02004 4.77317 4.98671 4.71317 4.94671C4.29317 4.65337 4.0265 4.14671 4.0265 3.60671V3.54004C4.0265 3.02671 3.47984 2.72004 3.0465 2.94004C3.03984 2.94671 3.03317 2.94671 3.0265 2.95337C2.99984 2.96671 2.97984 2.98004 2.95317 3.00004C2.93317 3.02004 2.9065 3.03337 2.8865 3.05337C2.69984 3.20004 2.53317 3.36671 2.39317 3.54671C2.31984 3.62671 2.25984 3.71337 2.2065 3.80004C2.19984 3.80671 2.19317 3.81337 2.1865 3.82671C2.1265 3.91337 2.07317 4.01337 2.0265 4.10671C2.01317 4.12004 2.0065 4.12671 2.0065 4.14004C1.9665 4.22004 1.9265 4.30004 1.89984 4.38671C1.87984 4.42004 1.87317 4.44671 1.85984 4.48004C1.81984 4.58004 1.79317 4.68004 1.7665 4.78004C1.73984 4.87337 1.71984 4.97337 1.7065 5.07337C1.69317 5.14671 1.6865 5.22004 1.67984 5.30004C1.67317 5.39337 1.6665 5.48671 1.6665 5.58004V11.42C1.6665 13.2134 3.11984 14.6667 4.91317 14.6667H11.0865C12.8798 14.6667 14.3332 13.2134 14.3332 11.42V5.58004C14.3332 4.52004 13.8265 3.59337 13.0465 3.00004ZM7.99984 12.1667C6.9665 12.1667 6.33317 11.6534 6.33317 10.8267C6.33317 10.3734 6.5665 9.98004 6.97317 9.74671C6.67984 9.54004 6.4865 9.23337 6.4865 8.81337C6.4865 7.94671 7.17984 7.50004 7.99984 7.50004C8.81984 7.50004 9.5065 7.94671 9.5065 8.81337C9.5065 9.23337 9.31984 9.54004 9.01984 9.74671C9.43317 9.98004 9.6665 10.3734 9.6665 10.8267C9.6665 11.6534 9.0265 12.1667 7.99984 12.1667Z" fill="#2D3E50"/>
</g>
</g>
</svg>
