<svg width="18" height="19" viewBox="0 0 18 19" fill="none" xmlns="http://www.w3.org/2000/svg">
<g id="vuesax/bold/kanban">
<g id="kanban">
<path id="Vector" d="M7.875 15.4576V3.60759C7.875 2.48259 7.395 2.03259 6.2025 2.03259H3.1725C1.98 2.03259 1.5 2.48259 1.5 3.60759V15.4576C1.5 16.5826 1.98 17.0326 3.1725 17.0326H6.2025C7.395 17.0326 7.875 16.5826 7.875 15.4576Z" fill="#292D32"/>
<path id="Vector_2" d="M16.5 10.2076V3.60759C16.5 2.48259 16.02 2.03259 14.8275 2.03259H11.7975C10.605 2.03259 10.125 2.48259 10.125 3.60759V10.2076C10.125 11.3326 10.605 11.7826 11.7975 11.7826H14.8275C16.02 11.7826 16.5 11.3326 16.5 10.2076Z" fill="#292D32"/>
</g>
</g>
</svg>
