<svg width="18" height="19" viewBox="0 0 18 19" fill="none" xmlns="http://www.w3.org/2000/svg">
<g id="vuesax/bold/box">
<path id="Vector" d="M15.1577 6.38571L9.38266 9.73071C9.15016 9.86571 8.85766 9.86571 8.61766 9.73071L2.84266 6.38571C2.43016 6.14571 2.32516 5.58321 2.64016 5.23071C2.85766 4.98321 3.10516 4.78071 3.36766 4.63821L7.43266 2.38821C8.30266 1.90071 9.71266 1.90071 10.5827 2.38821L14.6477 4.63821C14.9102 4.78071 15.1577 4.99071 15.3752 5.23071C15.6752 5.58321 15.5702 6.14571 15.1577 6.38571Z" fill="#2D3E50"/>
<path id="Vector_2" d="M8.57236 11.1258V16.2408C8.57236 16.8108 7.99486 17.1858 7.48486 16.9383C5.93986 16.1808 3.33736 14.7633 3.33736 14.7633C2.42236 14.2458 1.67236 12.9408 1.67236 11.8683V7.99828C1.67236 7.40578 2.29486 7.03078 2.80486 7.32328L8.19736 10.4508C8.42236 10.5933 8.57236 10.8483 8.57236 11.1258Z" fill="#2D3E50"/>
<path id="Vector_3" d="M9.42773 11.1258V16.2408C9.42773 16.8108 10.0052 17.1858 10.5152 16.9383C12.0602 16.1808 14.6627 14.7633 14.6627 14.7633C15.5777 14.2458 16.3277 12.9408 16.3277 11.8683V7.99828C16.3277 7.40578 15.7052 7.03078 15.1952 7.32328L9.80273 10.4508C9.57773 10.5933 9.42773 10.8483 9.42773 11.1258Z" fill="#2D3E50"/>
</g>
</svg>
