<svg width="18" height="19" viewBox="0 0 18 19" fill="none" xmlns="http://www.w3.org/2000/svg">
<g id="vuesax/bold/send">
<g id="send">
<path id="Vector" d="M13.5525 6.90909L7.13245 3.69909C2.81995 1.53909 1.04995 3.30909 3.20995 7.62159L3.86245 8.92659C4.04995 9.30909 4.04995 9.75159 3.86245 10.1341L3.20995 11.4316C1.04995 15.7441 2.81245 17.5141 7.13245 15.3541L13.5525 12.1441C16.4325 10.7041 16.4325 8.34909 13.5525 6.90909ZM11.13 10.0891H7.07995C6.77245 10.0891 6.51745 9.83409 6.51745 9.52659C6.51745 9.21909 6.77245 8.96409 7.07995 8.96409H11.13C11.4375 8.96409 11.6925 9.21909 11.6925 9.52659C11.6925 9.83409 11.4375 10.0891 11.13 10.0891Z" fill="#2D3E50"/>
</g>
</g>
</svg>
