<svg width="16" height="16" viewBox="0 0 16 16" fill="none" xmlns="http://www.w3.org/2000/svg">
<g id="mais">
<g id="Vector">
<path fill-rule="evenodd" clip-rule="evenodd" d="M0 8C0 3.59834 3.59834 0 8 0C12.4017 0 16 3.59834 16 8C16 12.4017 12.4017 16 8 16C3.59834 16 0 12.4017 0 8ZM8 1.45455C4.40166 1.45455 1.45455 4.40166 1.45455 8C1.45455 11.5983 4.40166 14.5455 8 14.5455C11.5983 14.5455 14.5455 11.5983 14.5455 8C14.5455 4.40166 11.5983 1.45455 8 1.45455Z" fill="white"/>
<path fill-rule="evenodd" clip-rule="evenodd" d="M4.36364 8C4.36364 7.59834 4.68925 7.27273 5.09091 7.27273H10.9091C11.3108 7.27273 11.6364 7.59834 11.6364 8C11.6364 8.40166 11.3108 8.72727 10.9091 8.72727H5.09091C4.68925 8.72727 4.36364 8.40166 4.36364 8Z" fill="white"/>
<path fill-rule="evenodd" clip-rule="evenodd" d="M8 4.36364C8.40166 4.36364 8.72727 4.68925 8.72727 5.09091V10.9091C8.72727 11.3108 8.40166 11.6364 8 11.6364C7.59834 11.6364 7.27273 11.3108 7.27273 10.9091V5.09091C7.27273 4.68925 7.59834 4.36364 8 4.36364Z" fill="white"/>
</g>
</g>
</svg>
