<svg width="18" height="18" viewBox="0 0 18 18" fill="none" xmlns="http://www.w3.org/2000/svg">
<g id="Perfil 2">
<g id="Vector">
<path d="M18 9C18 4.041 13.959 0 9 0C4.041 0 0 4.041 0 9C0 11.61 1.125 13.959 2.907 15.606C2.907 15.615 2.907 15.615 2.898 15.624C2.988 15.714 3.096 15.786 3.186 15.867C3.24 15.912 3.285 15.957 3.339 15.993C3.501 16.128 3.681 16.254 3.852 16.38C3.915 16.425 3.969 16.461 4.032 16.506C4.203 16.623 4.383 16.731 4.572 16.83C4.635 16.866 4.707 16.911 4.77 16.947C4.95 17.046 5.139 17.136 5.337 17.217C5.409 17.253 5.481 17.289 5.553 17.316C5.751 17.397 5.949 17.469 6.147 17.532C6.219 17.559 6.291 17.586 6.363 17.604C6.579 17.667 6.795 17.721 7.011 17.775C7.074 17.793 7.137 17.811 7.209 17.82C7.461 17.874 7.713 17.91 7.974 17.937C8.01 17.937 8.046 17.946 8.082 17.955C8.388 17.982 8.694 18 9 18C9.306 18 9.612 17.982 9.909 17.955C9.945 17.955 9.981 17.946 10.017 17.937C10.278 17.91 10.53 17.874 10.782 17.82C10.845 17.811 10.908 17.784 10.98 17.775C11.196 17.721 11.421 17.676 11.628 17.604C11.7 17.577 11.772 17.55 11.844 17.532C12.042 17.46 12.249 17.397 12.438 17.316C12.51 17.289 12.582 17.253 12.654 17.217C12.843 17.136 13.032 17.046 13.221 16.947C13.293 16.911 13.356 16.866 13.419 16.83C13.599 16.722 13.779 16.623 13.959 16.506C14.022 16.47 14.076 16.425 14.139 16.38C14.319 16.254 14.49 16.128 14.652 15.993C14.706 15.948 14.751 15.903 14.805 15.867C14.904 15.786 15.003 15.705 15.093 15.624C15.093 15.615 15.093 15.615 15.084 15.606C16.875 13.959 18 11.61 18 9ZM13.446 13.473C11.007 11.835 7.011 11.835 4.554 13.473C4.158 13.734 3.834 14.04 3.564 14.373C2.196 12.987 1.35 11.088 1.35 9C1.35 4.779 4.779 1.35 9 1.35C13.221 1.35 16.65 4.779 16.65 9C16.65 11.088 15.804 12.987 14.436 14.373C14.175 14.04 13.842 13.734 13.446 13.473Z" fill="#B71319"/>
<path d="M9 4.437C7.137 4.437 5.625 5.949 5.625 7.812C5.625 9.639 7.056 11.124 8.955 11.178C8.982 11.178 9.018 11.178 9.036 11.178C9.054 11.178 9.081 11.178 9.099 11.178C9.108 11.178 9.117 11.178 9.117 11.178C10.935 11.115 12.366 9.639 12.375 7.812C12.375 5.949 10.863 4.437 9 4.437Z" fill="#B71319"/>
</g>
</g>
</svg>
