<svg width="18" height="19" viewBox="0 0 18 19" fill="none" xmlns="http://www.w3.org/2000/svg">
<g id="vuesax/bold/trend-up">
<g id="trend-up">
<path id="Vector" d="M12.1425 2.04443H5.8575C3.1275 2.04443 1.5 3.67193 1.5 6.40193V12.6794C1.5 15.4169 3.1275 17.0444 5.8575 17.0444H12.135C14.865 17.0444 16.4925 15.4169 16.4925 12.6869V6.40193C16.5 3.67193 14.8725 2.04443 12.1425 2.04443ZM12.66 9.19193C12.66 9.48443 12.4275 9.71693 12.135 9.71693C11.8425 9.71693 11.61 9.48443 11.61 9.19193V9.05693L9.57 11.0969C9.4575 11.2094 9.3075 11.2619 9.15 11.2469C8.9925 11.2319 8.85 11.1494 8.7675 11.0144L8.0025 9.87443L6.2175 11.6594C6.1125 11.7644 5.985 11.8094 5.85 11.8094C5.715 11.8094 5.58 11.7569 5.4825 11.6594C5.28 11.4569 5.28 11.1269 5.4825 10.9169L7.7175 8.68193C7.83 8.56943 7.98 8.51693 8.1375 8.53193C8.295 8.54693 8.4375 8.62943 8.52 8.76443L9.285 9.90443L10.8675 8.32193H10.7325C10.44 8.32193 10.2075 8.08943 10.2075 7.79693C10.2075 7.50443 10.44 7.27193 10.7325 7.27193H12.1275C12.195 7.27193 12.2625 7.28693 12.33 7.30943C12.4575 7.36193 12.5625 7.46693 12.615 7.59443C12.645 7.66193 12.6525 7.72943 12.6525 7.79693V9.19193H12.66Z" fill="#2D3E50"/>
</g>
</g>
</svg>
