<svg width="17" height="18" viewBox="0 0 17 18" fill="none" xmlns="http://www.w3.org/2000/svg">
<path id="Vector" d="M16.5345 15.1013C15.5021 14.0895 14.4677 13.0804 13.431 12.0739C13.2171 11.8562 12.9382 11.7098 12.6341 11.6555L12.5466 11.6318V11.6033C12.5454 11.5976 12.5454 11.5917 12.5466 11.586L12.6973 11.3838C13.1804 10.7337 13.5473 10.0087 13.7825 9.23928C13.7971 9.18717 13.8133 9.13505 13.8279 9.08136L13.8376 9.0403C13.9496 8.60938 14.018 8.16878 14.0417 7.72483C14.0682 7.13278 14.0198 6.53979 13.8975 5.95929C13.8443 5.69703 13.775 5.43811 13.6902 5.1839C13.6821 5.16021 13.674 5.13653 13.6643 5.11284C13.6464 5.06072 13.627 5.00703 13.6076 4.95492C13.4578 4.56571 13.2724 4.19045 13.0536 3.83369L13.0099 3.7642C12.984 3.72314 12.9564 3.6805 12.9273 3.63945C12.5838 3.13211 12.175 2.66985 11.7108 2.26396C10.7727 1.42646 9.61398 0.859982 8.36442 0.627915C8.18462 0.594752 8.00321 0.569485 7.8218 0.544218C7.56045 0.515144 7.29764 0.500382 7.0346 0.5C6.82889 0.5 6.62642 0.511054 6.42557 0.526846H6.41261C6.13239 0.571064 5.84732 0.591593 5.57358 0.65792C4.66011 0.854956 3.79296 1.2182 3.0176 1.72862L2.89612 1.81389C2.84753 1.84706 2.79894 1.88338 2.75196 1.91812L2.58999 2.04288L2.46365 2.1471C2.41829 2.185 2.37132 2.2229 2.32759 2.26238C1.63218 2.88762 1.0678 3.63845 0.665719 4.47326C0.555605 4.69521 0.458268 4.92296 0.374164 5.15548C0.126332 5.86482 -7.8693e-05 6.60909 3.67527e-08 7.35846C0.00049647 7.66321 0.021599 7.96761 0.0631705 8.26965C0.0874668 8.42757 0.118242 8.58549 0.153877 8.75447C0.270417 9.27861 0.443057 9.78938 0.668959 10.2784L0.685156 10.3131C0.694875 10.3337 0.706213 10.3526 0.715932 10.3731C1.1846 11.3036 1.8629 12.1188 2.70013 12.7577C3.57207 13.3962 4.57295 13.8473 5.63675 14.0811C6.09681 14.1722 6.56514 14.2177 7.0346 14.2169C7.60282 14.217 8.16897 14.1502 8.72076 14.0179C9.42074 13.8321 10.0919 13.5553 10.7163 13.1952C10.8005 13.1478 10.8783 13.0941 10.9884 13.0373C11.0062 13.5252 11.2654 13.8553 11.5845 14.1632C12.5563 15.1107 13.5282 16.0583 14.5 17.0058C14.5841 17.088 14.6734 17.165 14.7673 17.2363C15.0513 17.4391 15.4032 17.5301 15.753 17.4912C16.1027 17.4523 16.4245 17.2863 16.6543 17.0263C17.1532 16.4167 17.1111 15.6603 16.5345 15.1013ZM7.04108 11.9271C6.11424 11.9277 5.20801 11.6604 4.43693 11.159C3.66585 10.6577 3.06453 9.94467 2.70895 9.11019C2.35338 8.2757 2.25953 7.35717 2.43924 6.47069C2.61896 5.58421 3.06419 4.76957 3.71866 4.12973C4.37313 3.48988 5.20746 3.05355 6.1162 2.87589C7.02495 2.69822 7.96732 2.78719 8.82422 3.13155C9.68112 3.47591 10.4141 4.06021 10.9305 4.8106C11.4469 5.56098 11.7235 6.44377 11.7254 7.3474C11.7254 8.55982 11.2323 9.72277 10.3542 10.5813C9.47608 11.4398 8.28463 11.9237 7.04108 11.9271Z" fill="#B71319"/>
</svg>
